<svg xmlns="http://www.w3.org/2000/svg" viewBox="0 0 164.013 164.027"><defs><linearGradient x1="0" y1="0" x2="1" y2="0" gradientUnits="userSpaceOnUse" gradientTransform="scale(-792 792) rotate(-55.16 .887 1.588)" spreadMethod="pad" id="b"><stop offset="0" stop-color="#fbe2cd"/><stop offset=".526" stop-color="#cf55b2"/><stop offset="1" stop-color="#7349a9"/></linearGradient><linearGradient x1="0" y1="0" x2="1" y2="0" gradientUnits="userSpaceOnUse" gradientTransform="scale(-792 792) rotate(-55.16 .345 1.87)" spreadMethod="pad" id="d"><stop offset="0" stop-color="#fbe2cd"/><stop offset=".526" stop-color="#cf55b2"/><stop offset="1" stop-color="#7349a9"/></linearGradient><linearGradient x1="0" y1="0" x2="1" y2="0" gradientUnits="userSpaceOnUse" gradientTransform="scale(-792 792) rotate(-55.16 .265 1.913)" spreadMethod="pad" id="f"><stop offset="0" stop-color="#fbe2cd"/><stop offset=".526" stop-color="#cf55b2"/><stop offset="1" stop-color="#7349a9"/></linearGradient><linearGradient x1="0" y1="0" x2="1" y2="0" gradientUnits="userSpaceOnUse" gradientTransform="scale(-792 792) rotate(-55.16 .143 1.976)" spreadMethod="pad" id="h"><stop offset="0" stop-color="#fbe2cd"/><stop offset=".526" stop-color="#cf55b2"/><stop offset="1" stop-color="#7349a9"/></linearGradient><linearGradient x1="0" y1="0" x2="1" y2="0" gradientUnits="userSpaceOnUse" gradientTransform="scale(-792 792) rotate(-55.16 .656 1.709)" spreadMethod="pad" id="j"><stop offset="0" stop-color="#fbe2cd"/><stop offset=".526" stop-color="#cf55b2"/><stop offset="1" stop-color="#7349a9"/></linearGradient><clipPath clipPathUnits="userSpaceOnUse" id="a"><path d="M245.176 574.16c-13.367-59.551 19.375-73.23 57.304-89.082l1.368-.566c14.648-6.121 15.871-10.364 19.484-22.942 2.859-9.976 6.785-23.64 18.934-39.859 25.156-33.606 70.812-38.52 90.371-39.047 1.113-.152 2.109-.262 3.058-.262.707 0 1.395.086 2.078.235-2.418 3.867-4.421 7.976-7.214 11.601-3.922 5.078-4.848 12.207-4.336 18.836-15.535 1.25-44.766 6.34-59.942 26.614-8.847 11.816-11.535 21.14-14.121 30.167-4.328 15.067-8.801 30.653-36.75 42.333l-1.367.578c-38.34 16.011-47.449 19.824-39.59 54.812 10.215 45.52-5.508 66.016-42.215 81.36 81.961 71.218 176.973 141.152 442.645 156.011 8.273.473 14.601 7.551 14.14 15.824-.468 8.282-7.578 14.278-15.82 14.137-293.672-16.433-391.062-102.078-476.98-177.644l-2.961-2.598a15 15 0 0 1 5.422-25.586c49.89-15.637 53.359-24.363 46.492-54.922z"/></clipPath><clipPath clipPathUnits="userSpaceOnUse" id="c"><path d="M622.961 109.602c-8.066 0-15.207 1.168-21.406 3.527-6.203 2.359-11.035 5.242-14.512 8.66-3.477 3.41-5.207 6.66-5.207 9.762 0 1.488.402 3.039 1.203 4.648a14.23 14.23 0 0 0 3.164 4.192c1.309 1.179 2.703 1.769 4.188 1.769 1.738 0 3.379-.711 4.933-2.14a444.794 444.794 0 0 1 5.672-5.122c2.238-1.976 5.031-3.718 8.379-5.207 3.352-1.492 7.629-2.23 12.844-2.23 4.461 0 8.465.711 12 2.141 3.535 1.429 6.32 3.589 8.371 6.507 2.051 2.911 3.066 6.602 3.066 11.082 0 4.7-1.086 8.61-3.254 11.719-2.168 3.102-5.086 5.699-8.75 7.809-3.652 2.109-7.597 4.031-11.816 5.769a337.7 337.7 0 0 0-12.832 5.594c-4.344 1.977-8.32 4.367-11.914 7.148-3.594 2.801-6.485 6.329-8.652 10.622-2.168 4.277-3.25 9.636-3.25 16.089 0 6.821 1.269 12.528 3.808 17.118 2.539 4.593 5.926 8.257 10.145 10.98 4.211 2.727 8.867 4.68 13.957 5.859 5.086 1.18 10.105 1.766 15.066 1.766 3.106 0 6.543-.215 10.332-.641a66.86 66.86 0 0 0 11.074-2.238c3.594-1.055 6.575-2.449 8.926-4.187 2.356-1.743 3.535-3.852 3.535-6.328 0-1.243-.312-2.7-.926-4.372-.625-1.679-1.523-3.128-2.695-4.367-1.183-1.242-2.707-1.871-4.562-1.871-1.61 0-3.418.59-5.399 1.77-1.984 1.179-4.562 2.351-7.726 3.531-3.153 1.187-7.344 1.769-12.559 1.769-4.461 0-8.465-.609-12-1.851-3.535-1.238-6.301-3.078-8.281-5.488-1.985-2.422-2.981-5.621-2.981-9.59 0-3.973 1.086-7.231 3.262-9.77 2.168-2.551 5.051-4.711 8.652-6.511 3.594-1.801 7.539-3.508 11.817-5.122 4.277-1.609 8.555-3.5 12.844-5.668a62.08 62.08 0 0 0 11.902-7.91c3.664-3.109 6.574-7.039 8.75-11.82 2.168-4.77 3.254-10.699 3.254-17.77 0-8.929-1.828-16.351-5.488-22.242-3.665-5.886-8.684-10.258-15.071-13.109-6.394-2.848-13.679-4.277-21.863-4.277z"/></clipPath><clipPath clipPathUnits="userSpaceOnUse" id="e"><path d="M723.625 109.969c-2.727 0-5.305.562-7.715 1.672-2.422 1.109-4.004 2.789-4.746 5.031l-37.031 120.574c-.254.742-.371 1.309-.371 1.68 0 1.609.644 3.008 1.953 4.187 1.297 1.172 2.91 2.141 4.832 2.883 1.926.742 3.75 1.113 5.488 1.113 1.738 0 3.223-.312 4.473-.925 1.23-.625 2.043-1.68 2.414-3.164l30.703-106.071 30.516 106.071c.5 1.484 1.367 2.539 2.609 3.164 1.238.613 2.664.925 4.277.925 1.864 0 3.731-.371 5.586-1.113 1.864-.742 3.446-1.711 4.746-2.883 1.297-1.179 1.954-2.578 1.954-4.187 0-.254-.032-.496-.09-.742a3.75 3.75 0 0 1-.098-.938l-36.844-120.574c-.742-2.242-2.324-3.922-4.746-5.031-2.414-1.11-5.058-1.672-7.91-1.672z"/></clipPath><clipPath clipPathUnits="userSpaceOnUse" id="g"><path d="M828.398 109.969c-7.949 0-15.046 1.359-21.308 4.09-6.27 2.73-11.231 7.132-14.891 13.222-3.652 6.071-5.488 14.141-5.488 24.18v54.16c0 10.039 1.836 18.109 5.488 24.18 3.66 6.078 8.621 10.48 14.891 13.219 6.262 2.722 13.176 4.089 20.742 4.089 8.438 0 15.82-1.425 22.148-4.277 6.329-2.852 11.29-6.824 14.883-11.914 3.606-5.09 5.403-11.156 5.403-18.227 0-3.73-.84-6.23-2.512-7.543-1.68-1.296-4.129-1.957-7.352-1.957-2.609 0-4.875.469-6.789 1.399-1.933.93-2.949 2.64-3.074 5.121-.371 3.59-1.242 6.91-2.609 9.961-1.367 3.039-3.594 5.449-6.7 7.25-3.093 1.797-7.382 2.699-12.832 2.699-6.953 0-12.382-1.949-16.289-5.859-3.906-3.91-5.859-9.961-5.859-18.141v-54.16c0-8.18 1.953-14.231 5.859-18.141 3.907-3.91 9.336-5.859 16.289-5.859 6.817 0 12.219 1.949 16.184 5.859 3.973 3.91 5.957 9.961 5.957 18.141v15.258H831.75c-1.992 0-3.535.812-4.66 2.422-1.113 1.609-1.668 3.48-1.668 5.589 0 1.848.555 3.622 1.668 5.301 1.125 1.668 2.668 2.508 4.66 2.508h32c2.109 0 3.723-.66 4.836-1.949 1.121-1.301 1.68-2.879 1.68-4.75v-24.379c0-10.039-1.868-18.109-5.586-24.18-3.723-6.09-8.742-10.492-15.071-13.222-6.328-2.731-13.398-4.09-21.211-4.09z"/></clipPath><clipPath clipPathUnits="userSpaceOnUse" id="i"><path d="M1007.59 1077.3c-4.9-9.74-7.617-14.27-13.008-17.59-13.547-8.33-25.801-24.22-26.73-25.59-2.52 1.74-5.293 3.97-8.106 6.69 22.336 25.3 41.404 40.22 52.414 47.14-.9-2.67-2.32-6.15-4.57-10.65zm-66.574-102.237c-11.172-28.864-18.426-42.52-24.258-53.497-6.953-13.086-12.442-23.425-19.715-49.093-10.383-36.59-29.023-55.149-50.625-76.645-3.203-3.195-6.445-6.418-9.707-9.75-18.457-18.844-28.703-25.316-37.734-31.019-3.196-2.016-6.133-3.883-9.055-5.993-7.793-5.628-7.637-14.378-7.481-24.515.247-14.906.704-42.641-14.14-88.391-14.512-44.734-53.477-77.769-107.508-113.633-7.512-4.976-13.605-8.535-18.977-11.668-4.804-2.8-9.226-5.437-13.582-8.425-11.519 11.726-18.062 17.937-18.429 18.289-5.703 5.39-14.688 5.144-20.075-.559-5.386-5.691-5.14-14.676.559-20.074.106-.102 11.27-10.703 30.133-30.434a55.31 55.31 0 0 1 1.492-1.551l.715-.75c.055-.05.133-.07.184-.128 2.093-2.032 4.335-4.063 6.777-6.192 5.137-4.472 10.957-9.558 15.879-15.93 2.031-2.632 4.101-5.25 6.183-7.898 7.852-9.941 15.965-20.227 23.457-33.059 23.055-39.492 7.832-52-31.945-78.945-3.828-2.586-7.734-5.23-11.668-7.976-11.48-8.008-23.211-15.247-34.551-22.247-29.343-18.093-57.047-35.378-77.496-63.144-4.398 2.168-8.16 5.801-10.922 9.269 8.461 19.403 19.977 37.184 28.743 50.465l3.562 5.395c11.699 17.957 23.398 25.351 34.707 32.5 8.496 5.359 17.274 10.918 24.789 20.125 2.828 3.457 3.969 7.976 3.16 12.383-1.629 8.769-8.957 12.968-23.558 21.355-6.532 3.742-13.938 7.988-20.055 12.309-55.289 38.926-64.508 61.59-56.449 87.703 14.793 38.633 29.738 53.469 43.91 65.105l5.707 4.668c27.629 22.524 47.582 38.789 53.816 88.879.934 7.477-4.132 14.379-11.546 15.727-20.606 3.75-38.239 4.445-53.801 5.054-22.946.903-39.524 1.559-53.117 11.418a14.172 14.172 0 0 1-18.309-1.386c-26.652-26.282-30.457-54.106-33.801-78.645-.176-1.301-.383-2.566-.562-3.867-2.192-.652-4.243-1.172-6.039-1.484-7.914 48.316-6.508 102.05 9.636 124.195 19.516 26.777 83.918 38.894 112.86 37.773 2.918-.086 5.836.703 8.3 2.321 44.313 29.047 65.672 30.156 82.84 31.047 8.535.445 16.602.859 25.586 4.195a128.557 128.557 0 0 1 8.938 3.707c17.39-11.813 35.82-17.902 54.285-17.902 6.711 0 13.43.796 20.09 2.402 28.113 6.754 53.035 28.008 70.761 59.844 14.219 6.976 21.739 15.339 25.684 22.55 3.262 5.981 1.395 12.192.703 14.528-.762 2.523-2.402 6.605-4.777 11.426 8.887 10.511 17.558 23.386 25.39 35.132 6.028 9.036 11.719 17.567 16.575 23.621 9.804 12.215 17.715 23.657 26.093 35.766 8.555 12.363 17.364 25.056 28.809 39.526 4.707-4.38 9.266-7.67 13.27-10.21-3.622-8.27-8.075-19.101-13.711-33.667zM486.523 167.738c-2.543-6.199-5.593-13.609-8.418-19.668-.929 5.969-1.699 12.891-2.308 18.379-1.375 12.422-2.805 25.27-5.68 36.762-.836 3.34-1.113 5.508-1.176 6.848 1.231.293 2.789.57 3.969.8 4.891.922 12.082 2.371 18.801 6.59 3.523-3.539 7.812-6.969 12.871-9.801-7.148-13.687-13.07-27.777-18.059-39.91zm-18.675 184.625c-19.395-21.394-39.457-43.515-73.653-69.16-15.84-11.875-34.375-32.09-52.804-53.851-4.301 1.847-7.211 5.57-11.918 14.054 10.234 15.481 30.265 40.879 48.105 63.496 17.09 21.664 31.856 40.371 37.5 49.563 10.57 17.187 24.895 32.422 38.75 47.14 9.883 10.497 19.406 20.704 27.211 31.192 6.828-13.332 17.574-25.813 31.305-38.02-17.215-14.414-30.578-29.074-44.496-44.414zM313.355 195.391c-14.414-17.7-32.972-40.5-44.261-51.442.668 13.961 6.246 38.68 9.586 53.473 1.277 5.68 2.531 11.226 3.656 16.5 1.039 4.879 2.109 7.148 2.641 8.078 1.062.051 2.789-.031 4.125-.102 4.671-.207 11.445-.449 18.742 2.211 3.972-6.449 8.758-12.32 15.222-16.808-3.269-4-6.515-7.981-9.711-11.91zm157.407 367.754c-6.789 4.128-9.606 5.839-8.188 14.484.688 4.195 1.266 8.437 1.848 12.691 2.699 19.797 5.086 37.274 18.383 54.207 17.468-8.55 36.336-9.297 57.586-10.132 10.918-.426 22.922-.899 36.047-2.524-5.954-27.894-18.161-37.848-41.34-56.742l-5.789-4.738c-12.465-10.235-23.727-21.875-34.172-38.899-1.856 6.914-6.672 12.129-9.692 15.403-.531.578-1.074 1.125-1.539 1.652-1.941 7.793-8.582 11.824-13.144 14.598zm-10.985-39.524l-3.297-1.504c-3.203-1.465-6.656-3.047-9.351-4.148-1.367 4.148-3.047 10.586-4.695 16.867-1.493 5.73-3.243 12.422-5.411 20.176-.546 1.961-1.043 4.004-1.554 6.023.215.039.394.051.617.098 4.418-12.578 14.574-18.992 19.926-22.246.426-.266.84-.508 1.234-.742 1.652-4.375 4.727-7.696 7.336-10.516.27-.293.59-.649.918-1.008-1.297-.801-3.133-1.816-5.723-3zM674.258 901.68c2.363 21.363 15.332 39.558 38.547 54.113 17.41 10.918 31.629 20.445 42.695 33.508 3.926-6.27 5.867-12.602 2.422-16.406-.109-.106-.168-.243-.266-.356-.058-.066-.136-.094-.195-.168-7.481-9.066-15.711-15.297-22.977-20.789-13.867-10.492-30.675-23.207-23.039-50.203-7.371-5.246-12.578-12.633-14.472-21.082-2.86-12.731 2.316-25.742 14.191-35.692a14.17 14.17 0 0 1 9.109-3.316c4.055 0 8.098 1.734 10.899 5.082 5.039 6.016 4.238 14.973-1.766 20.008-1.281 1.066-5.383 4.773-4.726 7.691.508 2.274 3.543 5.227 8.359 6.481a14.231 14.231 0 0 1 9.344 7.863 14.208 14.208 0 0 1-.215 12.207c-7.645 15.379-6.355 16.352 9.453 28.317 4.856 3.667 10.442 8.019 16.203 13.32 6.492-4.606 14.434-8.164 21.895-11.504 3.418-1.524 7.937-3.551 11.297-5.332a16.608 16.608 0 0 0-1.817-.996 14.235 14.235 0 0 1-8.32-12.496 14.222 14.222 0 0 1 7.551-12.981c8.504-4.5 18.601-21.269 22.402-30.039-5.117-5.019-18.059-13.336-49.23-17.058-7.782-.93-13.348-8-12.411-15.786.938-7.785 8.028-13.375 15.782-12.41 1.414.168 2.715.375 4.082.563-10.157-10.219-21.485-17.184-33.457-20.059-14.114-3.375-28.782-1.176-43.028 6.172 2.528 3.606 3.516 6.637 3.868 8.57a14.166 14.166 0 0 1-3.965 12.664c-15.676 15.547-31.328 42.125-28.215 70.114zm356.072 216.13c-24.5 17.43-85.935-51.39-92.869-59.3-21.981-25.08-35.898-45.19-48.172-62.936-8.078-11.687-15.715-22.722-24.894-34.156-5.633-7.031-11.661-16.066-18.036-25.625-5.714-8.566-11.894-17.832-18.007-25.859-.344.402-.664.832-1.016 1.226 1.844 2.434 3.398 5.223 4.324 8.367 1.895 6.379.899 13.102-2.793 18.911-5.281 8.281-15.605 12.902-27.566 18.246-4.297 1.925-11.223 5.015-15.637 7.714 6.973 17.204-.723 39.042-21.66 58.722-3.223 3.04-7.684 4.39-12.078 3.67a14.232 14.232 0 0 1-10.215-7.41c-8.711-16.61-22.434-26.013-43.996-39.525-38.516-24.14-49.363-54.132-51.688-75.039-3.086-27.808 7.188-58.656 27.196-83.199-3.094-1.906-7.618-4.215-14.2-6.656-4.902-1.82-10.058-2.09-17.175-2.457-19.024-.988-44.914-2.332-93.278-33.289-30.078-.25-104.304-11.207-132.199-49.485-25.711-35.273-22.344-106.839-12.504-157.347.094-.664.199-1.328.383-1.961 1.676-8.359 3.5-16.176 5.418-23.039 2.121-7.598 3.836-14.141 5.293-19.735 5.648-21.593 8.488-32.433 19.18-37.5 10.191-4.843 19.722-.46 34.16 6.153l3.25 1.48c2.679 1.223 5.664 2.727 8.578 4.516a111.207 111.207 0 0 1-3.617-9.992c-2.446-6.438-4.86-13.203-7.231-20.723-4.785-15.203-20.011-31.387-36.136-48.516-14.141-15.031-30.168-32.07-42.258-51.738-4.782-7.773-19.754-26.75-35.598-46.824-18.976-24.043-40.469-51.289-51.008-67.668-.879-1.375-1.66-2.402-2.422-3.281-.054-.071-.117-.137-.175-.203-3.036-3.403-5.594-3.34-11.262-3.079-15.074.684-29.899-2.492-35.856-30.445a1363.124 1363.124 0 0 0-3.593-16.156c-9.711-43.031-14.856-70.203-4.434-84.684 3.746-5.179 9.293-8.379 15.629-9.027a20.193 20.193 0 0 1 1.949-.102c14.926 0 30.473 17.5 71.266 67.602 25.605 31.469 54.629 67.117 75.847 83.019 36.372 27.274 58.305 51.461 77.657 72.809 14.992 16.527 28.211 31.086 46.043 45.324a543.997 543.997 0 0 1 8.586-6.203c7.203-5.066 15.211-9.668 22.277-13.719.457-.261.934-.527 1.414-.808-2.113-1.438-4.394-2.871-6.84-4.414-12.582-7.949-28.238-17.844-43.324-40.981l-3.469-5.261c-9.879-14.961-24.808-37.547-34.433-62.383-1.418-3.684-2.918-4.473-11.457-6.067-7.192-1.343-17.039-3.203-23.032-12.539-6.172-9.617-4.144-21.679-2.082-29.91 2.41-9.637 3.727-21.527 5-33.008 2.93-26.429 5.95-53.718 27.336-53.718.797 0 1.621.039 2.477.117 16.633 1.519 24.101 19.703 35.418 47.222 7.332 17.868 15.648 38.118 26.945 54.688 17.281 25.351 42.692 41.035 72.113 59.191 11.672 7.207 23.739 14.66 35.875 23.106 3.829 2.668 7.629 5.246 11.348 7.765 36.523 24.735 77.922 52.774 40.559 116.786-8.496 14.543-17.239 25.617-25.696 36.328-2.019 2.566-4.023 5.097-5.996 7.656-6.426 8.32-13.437 14.512-19.148 19.512 2.207 1.367 4.609 2.773 7.324 4.355 5.711 3.328 12.176 7.11 20.371 12.539 51.043 33.867 100.77 72.879 118.817 128.535 16.3 50.239 15.781 82.239 15.527 97.614-.02 1.254-.039 2.648-.047 3.906 1.082.703 2.195 1.394 3.34 2.125 9.844 6.215 22.09 13.949 42.871 35.164 3.164 3.238 6.328 6.379 9.453 9.492 22.371 22.266 45.496 45.293 57.898 89.02 6.458 22.761 10.852 31.023 17.493 43.519 6.172 11.645 13.867 26.129 25.644 56.567 17.071 44.071 22.012 50.881 25.977 56.361 1.824 2.52 3.894 5.37 6.445 10.24 1.316 2.53 2.646 3.36 7.046 5.89 7.28 4.16 17.25 9.87 25.99 27.24 4.72 9.37 19.06 37.89-2.62 53.27z"/></clipPath></defs><g clip-path="url(#a)" transform="matrix(.15548 0 0 -.15548 -13.427 177.876)"><path d="M245.176 574.16c-13.367-59.551 19.375-73.23 57.304-89.082l1.368-.566c14.648-6.121 15.871-10.364 19.484-22.942 2.859-9.976 6.785-23.64 18.934-39.859 25.156-33.606 70.812-38.52 90.371-39.047 1.113-.152 2.109-.262 3.058-.262.707 0 1.395.086 2.078.235-2.418 3.867-4.421 7.976-7.214 11.601-3.922 5.078-4.848 12.207-4.336 18.836-15.535 1.25-44.766 6.34-59.942 26.614-8.847 11.816-11.535 21.14-14.121 30.167-4.328 15.067-8.801 30.653-36.75 42.333l-1.367.578c-38.34 16.011-47.449 19.824-39.59 54.812 10.215 45.52-5.508 66.016-42.215 81.36 81.961 71.218 176.973 141.152 442.645 156.011 8.273.473 14.601 7.551 14.14 15.824-.468 8.282-7.578 14.278-15.82 14.137-293.672-16.433-391.062-102.078-476.98-177.644l-2.961-2.598a15 15 0 0 1 5.422-25.586c49.89-15.637 53.359-24.363 46.492-54.922" fill="url(#b)"/></g><g clip-path="url(#c)" transform="matrix(.15548 0 0 -.15548 -13.427 177.876)"><path d="M622.961 109.602c-8.066 0-15.207 1.168-21.406 3.527-6.203 2.359-11.035 5.242-14.512 8.66-3.477 3.41-5.207 6.66-5.207 9.762 0 1.488.402 3.039 1.203 4.648a14.23 14.23 0 0 0 3.164 4.192c1.309 1.179 2.703 1.769 4.188 1.769 1.738 0 3.379-.711 4.933-2.14a444.794 444.794 0 0 1 5.672-5.122c2.238-1.976 5.031-3.718 8.379-5.207 3.352-1.492 7.629-2.23 12.844-2.23 4.461 0 8.465.711 12 2.141 3.535 1.429 6.32 3.589 8.371 6.507 2.051 2.911 3.066 6.602 3.066 11.082 0 4.7-1.086 8.61-3.254 11.719-2.168 3.102-5.086 5.699-8.75 7.809-3.652 2.109-7.597 4.031-11.816 5.769a337.7 337.7 0 0 0-12.832 5.594c-4.344 1.977-8.32 4.367-11.914 7.148-3.594 2.801-6.485 6.329-8.652 10.622-2.168 4.277-3.25 9.636-3.25 16.089 0 6.821 1.269 12.528 3.808 17.118 2.539 4.593 5.926 8.257 10.145 10.98 4.211 2.727 8.867 4.68 13.957 5.859 5.086 1.18 10.105 1.766 15.066 1.766 3.106 0 6.543-.215 10.332-.641a66.86 66.86 0 0 0 11.074-2.238c3.594-1.055 6.575-2.449 8.926-4.187 2.356-1.743 3.535-3.852 3.535-6.328 0-1.243-.312-2.7-.926-4.372-.625-1.679-1.523-3.128-2.695-4.367-1.183-1.242-2.707-1.871-4.562-1.871-1.61 0-3.418.59-5.399 1.77-1.984 1.179-4.562 2.351-7.726 3.531-3.153 1.187-7.344 1.769-12.559 1.769-4.461 0-8.465-.609-12-1.851-3.535-1.238-6.301-3.078-8.281-5.488-1.985-2.422-2.981-5.621-2.981-9.59 0-3.973 1.086-7.231 3.262-9.77 2.168-2.551 5.051-4.711 8.652-6.511 3.594-1.801 7.539-3.508 11.817-5.122 4.277-1.609 8.555-3.5 12.844-5.668a62.08 62.08 0 0 0 11.902-7.91c3.664-3.109 6.574-7.039 8.75-11.82 2.168-4.77 3.254-10.699 3.254-17.77 0-8.929-1.828-16.351-5.488-22.242-3.665-5.886-8.684-10.258-15.071-13.109-6.394-2.848-13.679-4.277-21.863-4.277" fill="url(#d)"/></g><g clip-path="url(#e)" transform="matrix(.15548 0 0 -.15548 -13.427 177.876)"><path d="M723.625 109.969c-2.727 0-5.305.562-7.715 1.672-2.422 1.109-4.004 2.789-4.746 5.031l-37.031 120.574c-.254.742-.371 1.309-.371 1.68 0 1.609.644 3.008 1.953 4.187 1.297 1.172 2.91 2.141 4.832 2.883 1.926.742 3.75 1.113 5.488 1.113 1.738 0 3.223-.312 4.473-.925 1.23-.625 2.043-1.68 2.414-3.164l30.703-106.071 30.516 106.071c.5 1.484 1.367 2.539 2.609 3.164 1.238.613 2.664.925 4.277.925 1.864 0 3.731-.371 5.586-1.113 1.864-.742 3.446-1.711 4.746-2.883 1.297-1.179 1.954-2.578 1.954-4.187 0-.254-.032-.496-.09-.742a3.75 3.75 0 0 1-.098-.938l-36.844-120.574c-.742-2.242-2.324-3.922-4.746-5.031-2.414-1.11-5.058-1.672-7.91-1.672" fill="url(#f)"/></g><g clip-path="url(#g)" transform="matrix(.15548 0 0 -.15548 -13.427 177.876)"><path d="M828.398 109.969c-7.949 0-15.046 1.359-21.308 4.09-6.27 2.73-11.231 7.132-14.891 13.222-3.652 6.071-5.488 14.141-5.488 24.18v54.16c0 10.039 1.836 18.109 5.488 24.18 3.66 6.078 8.621 10.48 14.891 13.219 6.262 2.722 13.176 4.089 20.742 4.089 8.438 0 15.82-1.425 22.148-4.277 6.329-2.852 11.29-6.824 14.883-11.914 3.606-5.09 5.403-11.156 5.403-18.227 0-3.73-.84-6.23-2.512-7.543-1.68-1.296-4.129-1.957-7.352-1.957-2.609 0-4.875.469-6.789 1.399-1.933.93-2.949 2.64-3.074 5.121-.371 3.59-1.242 6.91-2.609 9.961-1.367 3.039-3.594 5.449-6.7 7.25-3.093 1.797-7.382 2.699-12.832 2.699-6.953 0-12.382-1.949-16.289-5.859-3.906-3.91-5.859-9.961-5.859-18.141v-54.16c0-8.18 1.953-14.231 5.859-18.141 3.907-3.91 9.336-5.859 16.289-5.859 6.817 0 12.219 1.949 16.184 5.859 3.973 3.91 5.957 9.961 5.957 18.141v15.258H831.75c-1.992 0-3.535.812-4.66 2.422-1.113 1.609-1.668 3.48-1.668 5.589 0 1.848.555 3.622 1.668 5.301 1.125 1.668 2.668 2.508 4.66 2.508h32c2.109 0 3.723-.66 4.836-1.949 1.121-1.301 1.68-2.879 1.68-4.75v-24.379c0-10.039-1.868-18.109-5.586-24.18-3.723-6.09-8.742-10.492-15.071-13.222-6.328-2.731-13.398-4.09-21.211-4.09" fill="url(#h)"/></g><g clip-path="url(#i)" transform="matrix(.15548 0 0 -.15548 -13.427 177.876)"><path d="M1007.59 1077.3c-4.9-9.74-7.617-14.27-13.008-17.59-13.547-8.33-25.801-24.22-26.73-25.59-2.52 1.74-5.293 3.97-8.106 6.69 22.336 25.3 41.404 40.22 52.414 47.14-.9-2.67-2.32-6.15-4.57-10.65zm-66.574-102.237c-11.172-28.864-18.426-42.52-24.258-53.497-6.953-13.086-12.442-23.425-19.715-49.093-10.383-36.59-29.023-55.149-50.625-76.645-3.203-3.195-6.445-6.418-9.707-9.75-18.457-18.844-28.703-25.316-37.734-31.019-3.196-2.016-6.133-3.883-9.055-5.993-7.793-5.628-7.637-14.378-7.481-24.515.247-14.906.704-42.641-14.14-88.391-14.512-44.734-53.477-77.769-107.508-113.633-7.512-4.976-13.605-8.535-18.977-11.668-4.804-2.8-9.226-5.437-13.582-8.425-11.519 11.726-18.062 17.937-18.429 18.289-5.703 5.39-14.688 5.144-20.075-.559-5.386-5.691-5.14-14.676.559-20.074.106-.102 11.27-10.703 30.133-30.434a55.31 55.31 0 0 1 1.492-1.551l.715-.75c.055-.05.133-.07.184-.128 2.093-2.032 4.335-4.063 6.777-6.192 5.137-4.472 10.957-9.558 15.879-15.93 2.031-2.632 4.101-5.25 6.183-7.898 7.852-9.941 15.965-20.227 23.457-33.059 23.055-39.492 7.832-52-31.945-78.945-3.828-2.586-7.734-5.23-11.668-7.976-11.48-8.008-23.211-15.247-34.551-22.247-29.343-18.093-57.047-35.378-77.496-63.144-4.398 2.168-8.16 5.801-10.922 9.269 8.461 19.403 19.977 37.184 28.743 50.465l3.562 5.395c11.699 17.957 23.398 25.351 34.707 32.5 8.496 5.359 17.274 10.918 24.789 20.125 2.828 3.457 3.969 7.976 3.16 12.383-1.629 8.769-8.957 12.968-23.558 21.355-6.532 3.742-13.938 7.988-20.055 12.309-55.289 38.926-64.508 61.59-56.449 87.703 14.793 38.633 29.738 53.469 43.91 65.105l5.707 4.668c27.629 22.524 47.582 38.789 53.816 88.879.934 7.477-4.132 14.379-11.546 15.727-20.606 3.75-38.239 4.445-53.801 5.054-22.946.903-39.524 1.559-53.117 11.418a14.172 14.172 0 0 1-18.309-1.386c-26.652-26.282-30.457-54.106-33.801-78.645-.176-1.301-.383-2.566-.562-3.867-2.192-.652-4.243-1.172-6.039-1.484-7.914 48.316-6.508 102.05 9.636 124.195 19.516 26.777 83.918 38.894 112.86 37.773 2.918-.086 5.836.703 8.3 2.321 44.313 29.047 65.672 30.156 82.84 31.047 8.535.445 16.602.859 25.586 4.195a128.557 128.557 0 0 1 8.938 3.707c17.39-11.813 35.82-17.902 54.285-17.902 6.711 0 13.43.796 20.09 2.402 28.113 6.754 53.035 28.008 70.761 59.844 14.219 6.976 21.739 15.339 25.684 22.55 3.262 5.981 1.395 12.192.703 14.528-.762 2.523-2.402 6.605-4.777 11.426 8.887 10.511 17.558 23.386 25.39 35.132 6.028 9.036 11.719 17.567 16.575 23.621 9.804 12.215 17.715 23.657 26.093 35.766 8.555 12.363 17.364 25.056 28.809 39.526 4.707-4.38 9.266-7.67 13.27-10.21-3.622-8.27-8.075-19.101-13.711-33.667zM486.523 167.738c-2.543-6.199-5.593-13.609-8.418-19.668-.929 5.969-1.699 12.891-2.308 18.379-1.375 12.422-2.805 25.27-5.68 36.762-.836 3.34-1.113 5.508-1.176 6.848 1.231.293 2.789.57 3.969.8 4.891.922 12.082 2.371 18.801 6.59 3.523-3.539 7.812-6.969 12.871-9.801-7.148-13.687-13.07-27.777-18.059-39.91zm-18.675 184.625c-19.395-21.394-39.457-43.515-73.653-69.16-15.84-11.875-34.375-32.09-52.804-53.851-4.301 1.847-7.211 5.57-11.918 14.054 10.234 15.481 30.265 40.879 48.105 63.496 17.09 21.664 31.856 40.371 37.5 49.563 10.57 17.187 24.895 32.422 38.75 47.14 9.883 10.497 19.406 20.704 27.211 31.192 6.828-13.332 17.574-25.813 31.305-38.02-17.215-14.414-30.578-29.074-44.496-44.414zM313.355 195.391c-14.414-17.7-32.972-40.5-44.261-51.442.668 13.961 6.246 38.68 9.586 53.473 1.277 5.68 2.531 11.226 3.656 16.5 1.039 4.879 2.109 7.148 2.641 8.078 1.062.051 2.789-.031 4.125-.102 4.671-.207 11.445-.449 18.742 2.211 3.972-6.449 8.758-12.32 15.222-16.808-3.269-4-6.515-7.981-9.711-11.91zm157.407 367.754c-6.789 4.128-9.606 5.839-8.188 14.484.688 4.195 1.266 8.437 1.848 12.691 2.699 19.797 5.086 37.274 18.383 54.207 17.468-8.55 36.336-9.297 57.586-10.132 10.918-.426 22.922-.899 36.047-2.524-5.954-27.894-18.161-37.848-41.34-56.742l-5.789-4.738c-12.465-10.235-23.727-21.875-34.172-38.899-1.856 6.914-6.672 12.129-9.692 15.403-.531.578-1.074 1.125-1.539 1.652-1.941 7.793-8.582 11.824-13.144 14.598zm-10.985-39.524l-3.297-1.504c-3.203-1.465-6.656-3.047-9.351-4.148-1.367 4.148-3.047 10.586-4.695 16.867-1.493 5.73-3.243 12.422-5.411 20.176-.546 1.961-1.043 4.004-1.554 6.023.215.039.394.051.617.098 4.418-12.578 14.574-18.992 19.926-22.246.426-.266.84-.508 1.234-.742 1.652-4.375 4.727-7.696 7.336-10.516.27-.293.59-.649.918-1.008-1.297-.801-3.133-1.816-5.723-3zM674.258 901.68c2.363 21.363 15.332 39.558 38.547 54.113 17.41 10.918 31.629 20.445 42.695 33.508 3.926-6.27 5.867-12.602 2.422-16.406-.109-.106-.168-.243-.266-.356-.058-.066-.136-.094-.195-.168-7.481-9.066-15.711-15.297-22.977-20.789-13.867-10.492-30.675-23.207-23.039-50.203-7.371-5.246-12.578-12.633-14.472-21.082-2.86-12.731 2.316-25.742 14.191-35.692a14.17 14.17 0 0 1 9.109-3.316c4.055 0 8.098 1.734 10.899 5.082 5.039 6.016 4.238 14.973-1.766 20.008-1.281 1.066-5.383 4.773-4.726 7.691.508 2.274 3.543 5.227 8.359 6.481a14.231 14.231 0 0 1 9.344 7.863 14.208 14.208 0 0 1-.215 12.207c-7.645 15.379-6.355 16.352 9.453 28.317 4.856 3.667 10.442 8.019 16.203 13.32 6.492-4.606 14.434-8.164 21.895-11.504 3.418-1.524 7.937-3.551 11.297-5.332a16.608 16.608 0 0 0-1.817-.996 14.235 14.235 0 0 1-8.32-12.496 14.222 14.222 0 0 1 7.551-12.981c8.504-4.5 18.601-21.269 22.402-30.039-5.117-5.019-18.059-13.336-49.23-17.058-7.782-.93-13.348-8-12.411-15.786.938-7.785 8.028-13.375 15.782-12.41 1.414.168 2.715.375 4.082.563-10.157-10.219-21.485-17.184-33.457-20.059-14.114-3.375-28.782-1.176-43.028 6.172 2.528 3.606 3.516 6.637 3.868 8.57a14.166 14.166 0 0 1-3.965 12.664c-15.676 15.547-31.328 42.125-28.215 70.114zm356.072 216.13c-24.5 17.43-85.935-51.39-92.869-59.3-21.981-25.08-35.898-45.19-48.172-62.936-8.078-11.687-15.715-22.722-24.894-34.156-5.633-7.031-11.661-16.066-18.036-25.625-5.714-8.566-11.894-17.832-18.007-25.859-.344.402-.664.832-1.016 1.226 1.844 2.434 3.398 5.223 4.324 8.367 1.895 6.379.899 13.102-2.793 18.911-5.281 8.281-15.605 12.902-27.566 18.246-4.297 1.925-11.223 5.015-15.637 7.714 6.973 17.204-.723 39.042-21.66 58.722-3.223 3.04-7.684 4.39-12.078 3.67a14.232 14.232 0 0 1-10.215-7.41c-8.711-16.61-22.434-26.013-43.996-39.525-38.516-24.14-49.363-54.132-51.688-75.039-3.086-27.808 7.188-58.656 27.196-83.199-3.094-1.906-7.618-4.215-14.2-6.656-4.902-1.82-10.058-2.09-17.175-2.457-19.024-.988-44.914-2.332-93.278-33.289-30.078-.25-104.304-11.207-132.199-49.485-25.711-35.273-22.344-106.839-12.504-157.347.094-.664.199-1.328.383-1.961 1.676-8.359 3.5-16.176 5.418-23.039 2.121-7.598 3.836-14.141 5.293-19.735 5.648-21.593 8.488-32.433 19.18-37.5 10.191-4.843 19.722-.46 34.16 6.153l3.25 1.48c2.679 1.223 5.664 2.727 8.578 4.516a111.207 111.207 0 0 1-3.617-9.992c-2.446-6.438-4.86-13.203-7.231-20.723-4.785-15.203-20.011-31.387-36.136-48.516-14.141-15.031-30.168-32.07-42.258-51.738-4.782-7.773-19.754-26.75-35.598-46.824-18.976-24.043-40.469-51.289-51.008-67.668-.879-1.375-1.66-2.402-2.422-3.281-.054-.071-.117-.137-.175-.203-3.036-3.403-5.594-3.34-11.262-3.079-15.074.684-29.899-2.492-35.856-30.445a1363.124 1363.124 0 0 0-3.593-16.156c-9.711-43.031-14.856-70.203-4.434-84.684 3.746-5.179 9.293-8.379 15.629-9.027a20.193 20.193 0 0 1 1.949-.102c14.926 0 30.473 17.5 71.266 67.602 25.605 31.469 54.629 67.117 75.847 83.019 36.372 27.274 58.305 51.461 77.657 72.809 14.992 16.527 28.211 31.086 46.043 45.324a543.997 543.997 0 0 1 8.586-6.203c7.203-5.066 15.211-9.668 22.277-13.719.457-.261.934-.527 1.414-.808-2.113-1.438-4.394-2.871-6.84-4.414-12.582-7.949-28.238-17.844-43.324-40.981l-3.469-5.261c-9.879-14.961-24.808-37.547-34.433-62.383-1.418-3.684-2.918-4.473-11.457-6.067-7.192-1.343-17.039-3.203-23.032-12.539-6.172-9.617-4.144-21.679-2.082-29.91 2.41-9.637 3.727-21.527 5-33.008 2.93-26.429 5.95-53.718 27.336-53.718.797 0 1.621.039 2.477.117 16.633 1.519 24.101 19.703 35.418 47.222 7.332 17.868 15.648 38.118 26.945 54.688 17.281 25.351 42.692 41.035 72.113 59.191 11.672 7.207 23.739 14.66 35.875 23.106 3.829 2.668 7.629 5.246 11.348 7.765 36.523 24.735 77.922 52.774 40.559 116.786-8.496 14.543-17.239 25.617-25.696 36.328-2.019 2.566-4.023 5.097-5.996 7.656-6.426 8.32-13.437 14.512-19.148 19.512 2.207 1.367 4.609 2.773 7.324 4.355 5.711 3.328 12.176 7.11 20.371 12.539 51.043 33.867 100.77 72.879 118.817 128.535 16.3 50.239 15.781 82.239 15.527 97.614-.02 1.254-.039 2.648-.047 3.906 1.082.703 2.195 1.394 3.34 2.125 9.844 6.215 22.09 13.949 42.871 35.164 3.164 3.238 6.328 6.379 9.453 9.492 22.371 22.266 45.496 45.293 57.898 89.02 6.458 22.761 10.852 31.023 17.493 43.519 6.172 11.645 13.867 26.129 25.644 56.567 17.071 44.071 22.012 50.881 25.977 56.361 1.824 2.52 3.894 5.37 6.445 10.24 1.316 2.53 2.646 3.36 7.046 5.89 7.28 4.16 17.25 9.87 25.99 27.24 4.72 9.37 19.06 37.89-2.62 53.27" fill="url(#j)"/></g></svg>